<?xml version="1.0" standalone="no"?><!DOCTYPE svg PUBLIC "-//W3C//DTD SVG 1.1//EN" "http://www.w3.org/Graphics/SVG/1.1/DTD/svg11.dtd"><svg t="1737290465059" class="icon" viewBox="0 0 1024 1024" version="1.1" xmlns="http://www.w3.org/2000/svg" p-id="4267" xmlns:xlink="http://www.w3.org/1999/xlink" width="200" height="200"><path d="M768.683 852.828c0 27.392-16.209 43.6-43.601 43.6H299.279c-27.392 0-43.6-18.208-43.6-45.6V287.424h-63.601v572.404c0 54.783 44.417 99.201 99.201 99.201h440.803c54.783 0 99.201-44.418 99.201-99.201V287.424h-62.601v565.404z m-320.596-47.599V312.224c0-13.696-14.18-24.8-31.704-24.8-17.523 0-31.704 11.104-31.704 24.8v493.004c0 13.695 14.181 26.8 31.704 26.8 17.524 0 31.704-13.104 31.704-26.799z m191.595 0V312.224c0-13.696-14.217-24.8-31.786-24.8-17.567 0-31.783 11.104-31.783 24.8v493.004c0 13.695 14.216 26.8 31.783 26.8 17.569 0 31.786-13.104 31.786-26.799z m263.002-645.806H673.481v-45.601c0-27.391-22.208-49.6-49.601-49.6h-222.4c-27.392 0-49.601 22.209-49.601 49.6v45.601H123.678c-13.708 0-24.8 19.104-24.8 32.8s11.092 32.801 24.8 32.801h779.005c13.708 0 24.8-19.105 24.8-32.801s-11.091-32.8-24.799-32.8z" p-id="4268" fill="#ffffff"></path></svg>